Fly_normalized_Motion_pl01
version=1
nRows=16
nColumns=43
inDegrees=yes
endheader
time		pelvis_tilt		pelvis_list		pelvis_rotation		pelvis_tx		pelvis_ty		pelvis_tz		hip_flexion_r		hip_adduction_r		hip_rotation_r		knee_angle_r		ankle_angle_r		subtalar_angle_r		mtp_angle_r		hip_flexion_l		hip_adduction_l		hip_rotation_l		knee_angle_l		ankle_angle_l		subtalar_angle_l		mtp_angle_l		lumbar_extension		lumbar_bending		lumbar_rotation		neck_flexion		neck_lateral_bending		neck_rotation		arm_flex_r		arm_add_r		arm_rot_r		elbow_flex_r		pro_sup_r		wrist_flex_r		wrist_dev_r		hand_finger_flex_r		arm_flex_l		arm_add_l		arm_rot_l		elbow_flex_l		pro_sup_l		wrist_flex_l		wrist_dev_l		hand_finger_flex_l		
3.890000		1.371177		-23.984467		91.148598		0.004017		1.714232		1.345800		63.727083		-4.145285		2.368624		-114.593762		-13.992478		3.630135		37.988430		57.338493		-13.842535		0.071712		-115.336941		9.569959		-0.156755		13.278149		-31.602523		-0.723161		1.967722		8.422230		11.839318		0.466421		114.759313		-8.305774		35.469665		47.277145		99.839325		-4.338285		-12.102962		-26.013186		110.773256		-12.525357		26.274877		50.134611		117.990967		-21.244043		-11.268850		-16.100885		
3.894015		1.413296		-23.549856		91.246874		0.004040		1.714167		1.338215		63.329403		-3.930255		1.992147		-114.321405		-13.088205		3.993104		37.921428		57.069398		-13.716240		0.267477		-115.130900		10.279027		0.111203		13.766728		-31.432733		-0.649715		1.943591		7.306956		11.938382		0.511497		113.155025		-8.869626		35.639182		48.081029		100.353650		-4.046581		-11.858726		-26.187230		109.265150		-13.474339		26.882246		50.749478		118.430409		-20.694024		-11.106842		-16.274967		
3.898030		1.462294		-23.138253		91.344045		0.004109		1.714051		1.330739		62.987726		-3.683736		1.554623		-114.006895		-12.171124		4.148765		37.862814		56.885155		-13.603175		0.438489		-114.911991		10.897944		0.034770		14.296142		-31.287214		-0.561173		1.928380		6.284100		12.021167		0.545557		111.483837		-9.427117		35.661998		48.964035		100.961859		-3.781815		-11.650416		-26.288914		107.738735		-14.496453		27.451649		51.420351		118.848768		-20.066290		-10.988787		-16.346784		
3.902045		1.534842		-22.745492		91.435006		0.004236		1.713893		1.323356		62.707433		-3.406778		1.060767		-113.654986		-11.335278		3.978703		37.817337		56.801936		-13.534575		0.593016		-114.679417		11.240203		-0.526385		14.788436		-31.177712		-0.470168		1.928579		5.367176		12.098979		0.561808		109.727280		-9.989094		35.525647		49.938963		101.647263		-3.558477		-11.479455		-26.363275		106.195593		-15.556028		27.986225		52.151351		119.251875		-19.412341		-10.929033		-16.312564		
3.906061		1.655076		-22.384436		91.548948		0.004441		1.713567		1.316005		62.502330		-3.080335		0.500676		-113.296085		-10.661872		3.446328		37.775158		56.823761		-13.522310		0.760739		-114.434434		11.209689		-1.654623		15.256823		-31.055537		-0.354042		1.940277		4.517111		12.206271		0.585504		107.819996		-10.572605		35.154347		51.027724		102.508564		-3.348106		-11.252656		-26.498461		104.579927		-16.646931		28.436826		52.969247		119.689671		-18.700612		-10.837955		-16.215787		
3.910076		1.865701		-22.566235		91.927866		0.004096		1.712313		1.309189		62.932460		-2.960932		-0.222956		-112.969575		-10.478455		2.600995		37.587496		57.677141		-13.314236		1.000825		-114.184138		9.977875		-4.383875		17.188256		-30.348623		-0.016908		1.750774		3.802329		12.472064		0.767152		105.438350		-10.833729		33.237211		52.542759		106.815342		-1.562141		-9.909974		-27.482669		102.563327		-17.627368		27.856375		54.255044		121.421802		-16.689557		-9.639306		-16.474359		
3.914091		1.890840		-22.062077		91.904200		0.004595		1.712067		1.301743		62.708207		-2.556025		-0.694158		-112.617978		-10.120328		1.601870		37.564490		57.485188		-13.332480		1.088484		-113.825024		9.947639		-5.540872		17.246652		-30.474511		-0.042975		1.883495		3.181276		12.474894		0.611257		103.489543		-11.513610		32.904400		53.495588		106.923606		-1.584818		-10.290883		-27.829371		100.979729		-18.736320		28.418531		54.908548		121.675597		-16.411106		-10.060432		-16.449300		
3.918106		2.070937		-21.726543		91.993593		0.005067		1.711460		1.294391		62.657736		-2.131134		-1.314822		-112.215550		-10.314674		0.166302		37.530939		57.654519		-13.471757		1.189942		-113.489899		9.376749		-7.852116		17.039227		-30.416948		0.055936		1.981328		2.585898		12.721705		0.579712		101.258258		-12.118735		32.145048		54.666596		107.375847		-1.577579		-10.405474		-28.408564		99.262415		-19.833382		28.727244		55.700354		121.940083		-15.887716		-10.181976		-16.319597		
3.922121		2.197755		-21.533867		92.146427		0.005135		1.710485		1.287395		62.844526		-1.878243		-1.913655		-111.821906		-10.655017		-1.138753		37.488352		58.077420		-13.410850		1.279321		-113.161711		8.645584		-10.226112		16.572392		-30.249390		0.188797		2.020289		2.153059		12.968693		0.599770		99.084263		-12.730818		31.312324		55.789629		108.155230		-1.315065		-10.352453		-29.076196		97.518681		-20.858728		28.854512		56.442081		122.263467		-15.227336		-10.069609		-16.158606		
3.926136		2.232351		-21.221971		92.284092		0.005271		1.709680		1.280181		62.906860		-1.704482		-2.472685		-111.371115		-10.830626		-2.111878		37.464974		58.295897		-13.320864		1.284530		-112.751160		8.520378		-11.700740		16.167005		-30.275021		0.251647		2.022757		1.780911		13.036105		0.487696		96.859611		-13.430908		30.516879		56.994208		108.432509		-1.305602		-10.592349		-29.466604		95.739767		-22.041820		29.094343		57.292997		122.476670		-14.886666		-10.222389		-16.049636		
3.930152		2.313724		-21.001281		92.455196		0.005351		1.708589		1.273147		63.083260		-1.532726		-3.030833		-110.873208		-11.078193		-3.039199		37.435993		58.708342		-13.233843		1.315313		-112.312191		8.250070		-13.260575		15.599556		-30.217966		0.366514		2.046708		1.514344		13.222472		0.434061		94.552640		-14.046802		29.480789		58.158757		108.714318		-1.221199		-10.667457		-29.832490		93.912860		-23.171082		29.195948		58.115187		122.670313		-14.486603		-10.162895		-15.921222		
3.934167		2.423240		-21.137597		92.749648		0.005112		1.706726		1.266525		63.679534		-1.498958		-3.590579		-110.366633		-11.315332		-3.804364		37.351219		59.652594		-12.965763		1.395443		-111.876186		7.567187		-15.072062		14.111796		-29.776584		0.556178		2.012281		1.285447		13.559542		0.463499		92.115612		-14.624817		27.996711		59.431521		109.632861		-0.246015		-10.190348		-30.409483		91.930420		-24.188322		28.980777		59.045170		123.163671		-13.625676		-9.457082		-15.810638		
3.938182		2.387546		-20.701588		92.852923		0.004969		1.705945		1.259495		63.629275		-1.413770		-3.982799		-109.750187		-11.155168		-3.949353		37.333206		59.722394		-12.814987		1.282018		-111.191993		7.672005		-15.371339		13.890901		-30.065974		0.632725		2.044563		1.214685		13.480617		0.312636		90.005618		-15.302661		27.279463		60.334748		109.443561		-0.366798		-10.421228		-30.643089		90.170969		-25.380735		29.147194		59.601925		123.239972		-13.642000		-9.637521		-15.877112		
3.942197		2.402803		-20.313995		92.988597		0.004892		1.704854		1.252449		63.608314		-1.316282		-4.388469		-109.087770		-10.988003		-3.983207		37.313121		59.938505		-12.691337		1.226474		-110.579174		7.559585		-15.688229		13.667488		-30.314256		0.738573		2.067551		1.178285		13.503070		0.186075		87.716082		-15.934325		26.320147		61.351804		109.135563		-0.477953		-10.510250		-30.854277		88.298711		-26.608207		29.199761		60.290173		123.250421		-13.667405		-9.632495		-15.952211		
3.946212		2.536918		-20.157336		93.229022		0.004840		1.703093		1.245537		63.835376		-1.234716		-4.908272		-108.384462		-10.721913		-3.708624		37.262470		60.557064		-12.554121		1.323705		-110.076395		7.171988		-16.054254		13.196594		-30.312142		0.921103		2.036978		1.363228		13.759767		0.100460		85.176086		-16.354975		24.827474		62.478980		108.653708		-0.246346		-10.068464		-31.079413		86.207947		-27.838640		28.990326		61.289514		123.187083		-13.506372		-8.918812		-16.113060		
3.950227		2.534615		-19.803410		93.401366		0.004578		1.701899		1.238631		63.818564		-1.228004		-5.218484		-107.577730		-10.539379		-3.420815		37.242354		60.758835		-12.372299		1.202026		-109.215145		6.853731		-15.945379		13.018265		-30.587150		1.056996		2.018044		1.228148		13.651009		0.024706		83.008176		-17.050471		24.095005		63.229610		108.367716		-0.286758		-10.165316		-31.219321		84.372925		-29.139617		29.105918		61.864313		123.169453		-13.459771		-8.774354		-16.209720		
